<?xml version="1.0" encoding="utf-8"?>
<!-- Generator: Adobe Illustrator 22.0.1, SVG Export Plug-In . SVG Version: 6.00 Build 0)  -->
<svg version="1.1" id="Layer_1" xmlns="http://www.w3.org/2000/svg" xmlns:xlink="http://www.w3.org/1999/xlink" x="0px" y="0px"
	 viewBox="0 0 135 135" style="enable-background:new 0 0 135 135;" xml:space="preserve">
<style type="text/css">
	.st0{fill:#4B83B9;}
	.st1{fill:#1E67A8;}
	.st2{fill:#E8E2DD;}
	.st3{fill:#FFFFFF;}
	.st4{fill:#D4DDEA;}
	.st5{fill:#C1CFE3;}
	.st6{fill:#F79428;}
	.st7{fill:#F9B826;}
	.st8{fill:#FFEB99;}
	.st9{fill:#DABA5B;}
	.st10{fill:#F7F3F1;}
	.st11{fill:#F9DFC3;}
	.st12{fill:#285A91;}
	.st13{fill:#1D4D82;}
	.st14{fill:#87ABD7;}
	.st15{fill:#6991C2;}
	.st16{fill:#4B85BB;}
	.st17{fill:#E8DCD6;}
	.st18{fill:#1E67AA;}
	.st19{fill:#1E2D5A;}
	.st20{opacity:0.5;fill:#4B85BB;}
	.st21{fill:#1C8C4F;}
	.st22{fill:#55A275;}
</style>
<g>
	<path class="st6" d="M35.6,46.5l56.9-0.9c5,0,9,4.5,9,10.1v23.5c0,5.6-4,10.1-9,10.1H35.6c0,0-0.3-0.7-0.3-0.9
		c0-0.3-0.1-1.3-0.1-1.3s1.3-13.7,1.4-18.2c0-5.3-1.2-21-1.2-21S35,47.8,35.2,47C35.2,46.8,35.6,46.5,35.6,46.5z"/>
	<g>
		<path class="st7" d="M34.6,46.6L87,45.7c4.6,0,8.3,4.5,8.3,10.1v23.6c0,5.6-3.7,10.1-8.3,10.1H34.6c0,0-0.3-0.7-0.3-0.9
			c0-0.3-0.1-1.3-0.1-1.3s1.2-13.7,1.2-18.2c0-5.3-1.1-21-1.1-21s-0.3-0.2-0.1-0.9C34.3,46.9,34.6,46.6,34.6,46.6z"/>
		<path class="st8" d="M85.3,47.9H69.1H49.2c-3,0-6.1,0-9.1,0c-1.5,0-6.7-0.9-6.5,1.3c0.1,1.6,0.8,2.8,0.7,4.6
			c-0.2,2.1-0.4,4.1-0.4,6.2c0,2.7,0.4,5.1,0.7,7.7c0.4,3.8-0.7,7.3-0.7,11c0,3-0.1,5.5,0.4,8.5c0,0,0,0,0,0c5-0.1,10-0.1,14.9,0v0
			h9.7h10.1h16.2c4.3,0,7.8-4.1,7.8-9.1V56.9C93.1,51.9,89.6,47.9,85.3,47.9z"/>
		<path class="st7" d="M79.5,59.5c0,1.8,0.8,3.2,1.9,3.2c1,0,1.9-1.4,1.9-3.2c0-1.8-0.8-3.2-1.9-3.2C80.3,56.3,79.5,57.8,79.5,59.5z
			"/>
		<path class="st7" d="M63.9,62.4c0,2.5,1.2,4.6,2.7,4.6c1.5,0,2.7-2.1,2.7-4.6c0-2.5-1.2-4.6-2.7-4.6
			C65.2,57.8,63.9,59.9,63.9,62.4z"/>
		<path class="st7" d="M71.7,75.3c0,2.5,1.2,4.6,2.7,4.6c1.5,0,2.7-2.1,2.7-4.6c0-2.5-1.2-4.6-2.7-4.6
			C72.9,70.6,71.7,72.7,71.7,75.3z"/>
		<path class="st7" d="M53.7,70.8c0,2.1,0.9,3.8,1.9,3.8c1.1,0,1.9-1.7,1.9-3.8S56.7,67,55.7,67C54.6,67,53.7,68.7,53.7,70.8z"/>
	</g>
	<path class="st7" d="M47.8,55.2c0,1.9,0.9,3.5,1.9,3.5c1,0,1.9-1.6,1.9-3.5c0-1.9-0.9-3.5-1.9-3.5C48.7,51.8,47.8,53.3,47.8,55.2z"
		/>
	<path class="st7" d="M42.3,76.3c0,1.6,0.6,2.8,1.4,2.8c0.8,0,1.4-1.3,1.4-2.8c0-1.6-0.6-2.8-1.4-2.8C42.9,73.5,42.3,74.7,42.3,76.3
		z"/>
	<path class="st7" d="M62.9,78.1c0,1,0.4,1.8,0.8,1.8c0.4,0,0.8-0.8,0.8-1.8c0-1-0.4-1.8-0.8-1.8C63.2,76.3,62.9,77.1,62.9,78.1z"/>
	<path class="st7" d="M73.8,55.6c0,0.9,0.4,1.6,0.9,1.6c0.5,0,0.8-0.7,0.8-1.6c0-0.9-0.4-1.6-0.8-1.6C74.1,54,73.8,54.8,73.8,55.6z"
		/>
	<path class="st7" d="M83.2,73.7c0,1.1,0.5,2,1,2c0.6,0,1-0.9,1-2c0-1.1-0.5-2-1-2C83.6,71.7,83.2,72.6,83.2,73.7z"/>
	<path class="st7" d="M42.3,64.3c0,0.9,0.3,1.5,0.7,1.5c0.4,0,0.7-0.7,0.7-1.5c0-0.8-0.3-1.5-0.7-1.5C42.6,62.7,42.3,63.4,42.3,64.3
		z"/>
	<path class="st7" d="M48.4,80.8c0,0.9,0.4,1.6,0.9,1.6c0.5,0,0.9-0.7,0.9-1.6c0-0.9-0.4-1.6-0.9-1.6C48.8,79.2,48.4,79.9,48.4,80.8
		z"/>
	<path class="st7" d="M56.5,58.4c0,1.1,0.5,2.1,1.1,2.1c0.6,0,1.1-0.9,1.1-2.1c0-1.1-0.5-2.1-1.1-2.1C57,56.3,56.5,57.3,56.5,58.4z"
		/>
</g>
</svg>
