<?xml version="1.0" encoding="utf-8"?>
<!-- Generator: Adobe Illustrator 22.0.1, SVG Export Plug-In . SVG Version: 6.00 Build 0)  -->
<svg version="1.1" id="Layer_1" xmlns="http://www.w3.org/2000/svg" xmlns:xlink="http://www.w3.org/1999/xlink" x="0px" y="0px"
	 viewBox="0 0 135 135" style="enable-background:new 0 0 135 135;" xml:space="preserve">
<style type="text/css">
	.st0{fill:#4B83B9;}
	.st1{fill:#1E67A8;}
	.st2{fill:#E8E2DD;}
	.st3{fill:#FFFFFF;}
	.st4{fill:#D4DDEA;}
	.st5{fill:#C1CFE3;}
	.st6{fill:#F79428;}
	.st7{fill:#F9B826;}
	.st8{fill:#FFEB99;}
	.st9{fill:#DABA5B;}
	.st10{fill:#F7F3F1;}
	.st11{fill:#F9DFC3;}
	.st12{fill:#285A91;}
	.st13{fill:#1D4D82;}
	.st14{fill:#87ABD7;}
	.st15{fill:#6991C2;}
	.st16{fill:#4B85BB;}
	.st17{fill:#E8DCD6;}
	.st18{fill:#1E67AA;}
	.st19{fill:#1E2D5A;}
	.st20{opacity:0.5;fill:#4B85BB;}
	.st21{fill:#1C8C4F;}
	.st22{fill:#55A275;}
</style>
<g>
	<g>
		<g>
			<path class="st3" d="M96,48.9c0.2-0.5,0.3-1,0.3-1.5c0-2.3-1.9-4.2-4.2-4.2c-1.1,0-2.1,0.4-2.8,1.1c-0.7-0.4-1.4-0.8-2.3-0.9
				c0-2.3-1.9-4.2-4.2-4.2c-2.3,0-4.2,1.8-4.2,4.1c-0.2-1.6-1.6-2.8-3.3-2.8c-0.6,0-1.2,0.2-1.7,0.5c-0.6-2.9-3.1-5-6.1-5
				c-3.1,0-5.7,2.3-6.1,5.3c-1.1-1.2-2.7-2-4.5-2c-3.4,0-6.2,2.8-6.2,6.2c0,0,0,0.1,0,0.1c-0.4-0.1-0.8-0.1-1.2-0.1
				c-1.5,0-2.8,0.6-3.7,1.7c-0.9-1-2.2-1.6-3.7-1.6c-2.8,0-5.1,2.3-5.1,5.1c0,2.8,2.3,5.1,5.1,5.1c1.5,0,2.8-0.6,3.7-1.6
				c0.9,1,2.2,1.6,3.7,1.6c1.3,0,2.5-0.5,3.4-1.4c1.3,2.1,3.5,3.5,6.1,3.5c1.4,0,2.8-0.4,3.9-1.2c1.1,1.2,2.8,2,4.6,2
				c2.6,0,4.9-1.6,5.8-3.9c0.9,0.6,2,0.9,3.2,0.9c1.8,0,3.5-0.8,4.6-2.1c1.1,1.3,2.8,2.1,4.6,2.1c1.6,0,3.1-0.6,4.2-1.6
				c0.6,1.5,2.1,2.6,3.9,2.6c2.3,0,4.2-1.9,4.2-4.2C98,51,97.2,49.7,96,48.9z"/>
			<path class="st12" d="M42.2,95.8l-8.1-44.6h66.7l-9.1,44.6c-0.4,1.8-2.1,3.2-3.9,3.2H46C44.2,99,42.5,97.6,42.2,95.8z"/>
			<path class="st13" d="M67.5,51.2V99h20.4c1.8,0,3.5-1.4,3.9-3.2l9.1-44.6H67.5z"/>
			<polygon class="st14" points="40.3,85.2 73.6,85.2 73.6,65 36.6,65 			"/>
			<polygon class="st15" points="67.5,85.2 93.9,85.2 98,65 67.5,65 			"/>
			<polygon class="st12" points="101.6,51.2 33.4,51.2 34,54.7 100.9,54.7 			"/>
			<polygon class="st13" points="35.2,56.9 67.5,56.9 67.5,54.7 34.8,54.7 			"/>
		</g>
	</g>
</g>
</svg>
