<?xml version="1.0" encoding="utf-8"?>
<!-- Generator: Adobe Illustrator 22.0.1, SVG Export Plug-In . SVG Version: 6.00 Build 0)  -->
<svg version="1.1" id="Layer_1" xmlns="http://www.w3.org/2000/svg" xmlns:xlink="http://www.w3.org/1999/xlink" x="0px" y="0px"
	 viewBox="0 0 135 135" style="enable-background:new 0 0 135 135;" xml:space="preserve">
<style type="text/css">
	.st0{fill:#4B83B9;}
	.st1{fill:#1E67A8;}
	.st2{fill:#E8E2DD;}
	.st3{fill:#FFFFFF;}
	.st4{fill:#D4DDEA;}
	.st5{fill:#C1CFE3;}
	.st6{fill:#F79428;}
	.st7{fill:#F9B826;}
	.st8{fill:#FFEB99;}
	.st9{fill:#DABA5B;}
	.st10{fill:#F7F3F1;}
	.st11{fill:#F9DFC3;}
	.st12{fill:#285A91;}
	.st13{fill:#1D4D82;}
	.st14{fill:#87ABD7;}
	.st15{fill:#6991C2;}
	.st16{fill:#4B85BB;}
	.st17{fill:#E8DCD6;}
	.st18{fill:#1E67AA;}
	.st19{fill:#1E2D5A;}
	.st20{opacity:0.5;fill:#4B85BB;}
	.st21{fill:#1C8C4F;}
	.st22{fill:#55A275;}
</style>
<g>
	<g>
		<g>
			<path class="st9" d="M51.7,49.9C36.6,54.4,26.8,64.6,26.8,77c0,3.1,0.6,6.2,1.8,9h11.9h36.8c0,0,0-24.1,0-36.1
				C76.6,47.1,65.6,46.8,51.7,49.9z"/>
			<path class="st10" d="M69.4,52.3c-3.9,2-8.1,2.8-11.8,4.8c-3.3,1.9-7,2.9-9.7,5.9c-0.2,0.4-0.2,0.9-0.5,1c-7.1,5.2-7.7,14-8.1,22
				h33.8c1.4-12,3.4-23.6,3.8-35.5c-0.2,0-0.3,0-0.5,0.1C74,51.3,71.6,51.3,69.4,52.3z"/>
			<path class="st11" d="M62.8,52.9c-6.8,1.7-18.5,8.5-22.3,15.2C36.4,75.4,38.6,86,38.6,86h0.8c0.4-8,0.9-16.8,8.1-22
				c0.2-0.1,0.2-0.6,0.5-1c2.7-3,6.4-4,9.7-5.9c3.7-2,8-2.8,11.8-4.8c2.1-1,4.6-1,7-1.8c0.2,0,0.4,0,0.5-0.1c0-0.2,0-0.4,0-0.5
				C75.4,50.3,68.8,51.4,62.8,52.9z"/>
			<path class="st10" d="M77.4,49.9c0,0-0.1,0-0.3,0.1C69.8,55.6,63.7,73.9,62.2,86h15.2V49.9z"/>
			<path class="st9" d="M61.1,74.5c0.1-0.5,0.6-0.9,0.8-1.4c2.5-5.9,6.4-11,10.7-15.4v-2.1c0,0-14.7,6.1-18.5,15.1
				c-3.7,9-2.5,17-1.6,19.6c0.9,2.7,0.9,2.7,0.9,2.7l6.1,0.3C58.9,87,59.3,80.6,61.1,74.5z"/>
			<path class="st11" d="M61.4,80.4c0.7-2.3,1.5-4.7,2.3-6.9c1.9-5.3,5.3-9.7,8.7-14.2c0.1-0.1,0.2-0.3,0.3-0.5v-1.1
				c-4.3,4.4-8.3,9.5-10.7,15.4c-0.2,0.5-0.7,0.9-0.8,1.4c-1.8,6.1-2.2,12.5-1.5,18.8h0.7C60.3,89,60.2,84.6,61.4,80.4z"/>
			<path class="st10" d="M72.7,58.8c-0.1,0.2-0.2,0.3-0.3,0.5c-3.4,4.5-6.8,8.9-8.7,14.2c-0.8,2.3-1.6,4.7-2.3,6.9
				c-1.2,4.2-1.1,8.6-1,12.9h12.3V58.8z"/>
			<path class="st11" d="M99.3,67.8c-0.9-2.3-1.8-4.4-2.6-6.7c-0.4-0.9-0.9-1.9-1.6-2.6c-1.6-2-3-4.3-4.8-6.2
				c-0.2-0.4-0.6-0.8-0.9-1.1c-1-0.8-1.8-1.8-2.8-2.5v1.4c4.5,4.4,8.5,9.5,11.1,15.4c0.2,0.5,0.7,0.9,0.8,1.4
				c1.8,6.1,2.3,12.5,1.5,18.8l1.1,0C101.9,79.6,101.4,73.5,99.3,67.8z"/>
			<path class="st9" d="M105.6,63.2c-3.8-9-19-14.5-19-14.5l0,0c1,0.7,1.8,1.7,2.8,2.5c0.4,0.4,0.7,0.8,0.9,1.1
				c1.8,1.9,3.2,4.2,4.8,6.2c0.7,0.8,1.3,1.8,1.6,2.6c0.8,2.3,1.6,4.4,2.6,6.7c2.1,5.7,2.6,11.8,1.8,17.9l5.2-0.2c0,0,0,0,1-2.7
				C108.1,80.1,109.4,72.2,105.6,63.2z"/>
			<path class="st10" d="M86.6,50.2c4.5,4.4,8.5,9.5,11.1,15.4c0.2,0.5,0.7,0.9,0.8,1.4c1.8,6.1,2.3,12.5,1.5,18.8H86.6V50.2z"/>
		</g>
	</g>
</g>
</svg>
