<?xml version="1.0" encoding="utf-8"?>
<!-- Generator: Adobe Illustrator 22.0.1, SVG Export Plug-In . SVG Version: 6.00 Build 0)  -->
<svg version="1.1" id="Layer_1" xmlns="http://www.w3.org/2000/svg" xmlns:xlink="http://www.w3.org/1999/xlink" x="0px" y="0px"
	 viewBox="0 0 135 135" style="enable-background:new 0 0 135 135;" xml:space="preserve">
<style type="text/css">
	.st0{fill:#4B83B9;}
	.st1{fill:#1E67A8;}
	.st2{fill:#E8E2DD;}
	.st3{fill:#FFFFFF;}
	.st4{fill:#D4DDEA;}
	.st5{fill:#C1CFE3;}
	.st6{fill:#F79428;}
	.st7{fill:#F9B826;}
	.st8{fill:#FFEB99;}
	.st9{fill:#DABA5B;}
	.st10{fill:#F7F3F1;}
	.st11{fill:#F9DFC3;}
	.st12{fill:#285A91;}
	.st13{fill:#1D4D82;}
	.st14{fill:#87ABD7;}
	.st15{fill:#6991C2;}
	.st16{fill:#4B85BB;}
	.st17{fill:#E8DCD6;}
	.st18{fill:#1E67AA;}
	.st19{fill:#1E2D5A;}
	.st20{opacity:0.5;fill:#4B85BB;}
	.st21{fill:#1C8C4F;}
	.st22{fill:#55A275;}
</style>
<g>
	<g>
		<path class="st0" d="M46.9,33.8c0,0,1.2,2.3,3,2.7c1.8,0.5,6.6,3.9,5.7,13.8C54.7,60.2,44,64.1,44,79.7c0,8.7,6.1,15.4,9.7,18.6
			c-0.3,0.2-0.6,0.6-0.6,1c0,0.6,0.5,1.1,1,1.1v0h2.2h11.9v-2.3V33.8H46.9z"/>
		<path class="st1" d="M98.5,52.9c-1.9-3.3-4.6-5.4-7.8-6.2c-4.7-1.1-8,0.2-10,1.7c-0.1-7.2,1.5-14.6,1.5-14.6h-14v64.4v2.3h14.1v0
			c0.6-0.1,1-0.5,1-1.1c0-0.4-0.2-0.8-0.6-1c2.9-3,8.2-9.1,9.3-15.7c1.6-1.2,6-4.9,8.2-12.4C102,64.5,101.3,57.7,98.5,52.9z
			 M96.3,69c-1,3.6-2.6,6.1-4,7.7C91,65.8,83.8,59.1,81.7,55.1c1.1-1.8,3.8-5.3,8.1-4.2c2.5,0.6,4.1,2.6,5.1,4.2
			C97.1,58.9,97.6,64.4,96.3,69z"/>
		<g>
			<path class="st2" d="M78.1,44.1c0,0,0,8.1,2.3,13.1c2.3,5,10.4,13.6,9.2,23c-1.1,9.4-9.2,15.1-9.2,15.1H68.3V44.1H78.1z"/>
			<path class="st3" d="M58.5,44.1c0,0,0,8.1-2.3,13.1c-2.3,5-10.4,13.6-9.2,23c1.1,9.4,9.2,15.1,9.2,15.1h12.1V44.1H58.5z"/>
		</g>
	</g>
</g>
</svg>
