<?xml version="1.0" encoding="utf-8"?>
<!-- Generator: Adobe Illustrator 22.0.1, SVG Export Plug-In . SVG Version: 6.00 Build 0)  -->
<svg version="1.1"
	 id="svg2" inkscape:version="0.48.2 r9819" sodipodi:docname="Nouveau document 1" xmlns:cc="http://creativecommons.org/ns#" xmlns:dc="http://purl.org/dc/elements/1.1/" xmlns:inkscape="http://www.inkscape.org/namespaces/inkscape" xmlns:rdf="http://www.w3.org/1999/02/22-rdf-syntax-ns#" xmlns:sodipodi="http://sodipodi.sourceforge.net/DTD/sodipodi-0.dtd" xmlns:svg="http://www.w3.org/2000/svg"
	 xmlns="http://www.w3.org/2000/svg" xmlns:xlink="http://www.w3.org/1999/xlink" x="0px" y="0px" viewBox="0 0 163 54"
	 style="enable-background:new 0 0 163 54;" xml:space="preserve">
<style type="text/css">
	.st0{fill:#003A80;}
	.st1{fill:#84D0F0;}
	.st2{fill:#FFFFFF;}
</style>
<sodipodi:namedview  bordercolor="#666666" borderopacity="1.0" fit-margin-bottom="5" fit-margin-left="5" fit-margin-right="5" fit-margin-top="5" id="base" inkscape:current-layer="layer1-9" inkscape:cx="301.74843" inkscape:cy="282.9845" inkscape:document-units="px" inkscape:pageopacity="0.0" inkscape:pageshadow="2" inkscape:window-height="425" inkscape:window-maximized="0" inkscape:window-width="549" inkscape:window-x="50" inkscape:window-y="50" inkscape:zoom="0.33866723" pagecolor="#ffffff" showgrid="false">
	</sodipodi:namedview>
<g id="layer1" transform="translate(14.04099,-367.52415)" inkscape:groupmode="layer" inkscape:label="Calque 1">
	<g id="layer1-9" transform="translate(-155.93078,-30.908615)" inkscape:label="Calque 1">
		<g id="g3239" transform="translate(129.92104,-14.763755)">
			<g id="path3075">
				<path inkscape:connector-curvature="0" class="st0" d="M61,426.8h1v1.3c-0.3,0.1-0.5,0.2-1,0.2c-1.3,0-1.8-1.3-1.8-2.4
					c0-1.3,0.9-2.2,2-2.2c0.3,0,0.6,0.1,0.9,0.3c0.3,0.2,0.4,0.4,0.5,0.5l0.3-0.1c0-0.2-0.1-0.5-0.4-0.8c-0.4-0.4-1-0.6-1.6-0.6
					c-1.3,0-2.9,0.9-2.9,3.1c0,0.9,0.3,1.6,0.8,2.2c0.3,0.3,0.9,0.8,2,0.8c1.1,0,1.8-0.4,2.2-0.6V426H61V426.8L61,426.8z"/>
			</g>
			<g id="path3079">
				<path inkscape:connector-curvature="0" class="st0" d="M73.9,425.8c-0.3,0.1-0.6,0.1-0.9,0.1v-2c0.1,0,0.3,0,0.5,0
					c0.2,0,0.5,0,0.7,0.1c0.4,0.2,0.4,0.6,0.4,0.8C74.6,425.4,74.2,425.7,73.9,425.8 M75.5,425.6c0.2-0.3,0.2-0.7,0.2-0.9
					c0-0.4-0.1-0.9-0.6-1.2c-0.3-0.2-0.7-0.3-1.3-0.3h-1.9v5.7H73v-2.5c0.3,0.1,0.4,0.1,0.6,0.1l1.4,2.5h1.2l-1.5-2.7
					C75,426.1,75.3,425.9,75.5,425.6"/>
			</g>
			<g id="path3083">
				<path inkscape:connector-curvature="0" class="st0" d="M87.1,428.3c-1.5,0-1.5-1.9-1.5-2.4c0-1.3,0.5-2.2,1.5-2.2
					c0.8,0,1.5,0.6,1.5,2.3C88.6,426.5,88.6,428.3,87.1,428.3 M87.1,423c-2,0-2.7,1.7-2.7,3.1c0,1.3,0.6,3,2.7,3
					c2.1,0,2.7-1.8,2.7-3.1C89.8,424.8,89.3,423,87.1,423"/>
			</g>
			<g id="path3087">
				<path inkscape:connector-curvature="0" class="st0" d="M101.9,427.7c-0.2,0.2-0.6,0.6-1.2,0.6c-0.4,0-0.8-0.2-0.9-0.6
					c-0.1-0.1-0.1-0.4-0.1-0.9v-3.6h-1.1v3.6c0,1.1,0.2,1.5,0.5,1.9c0.3,0.3,0.8,0.5,1.3,0.5c0.2,0,0.6,0,1-0.3
					c0.2-0.2,0.4-0.4,0.6-0.6v0.7h1.1v-5.7h-1.1V427.7L101.9,427.7z"/>
			</g>
			<g id="path3091">
				<path inkscape:connector-curvature="0" class="st0" d="M114.1,425.8c-0.3,0.2-0.7,0.2-1,0.2v-2c0.4,0,0.7,0,1,0.1
					c0.4,0.1,0.6,0.5,0.6,0.9C114.7,425.3,114.5,425.6,114.1,425.8 M114.1,423.2h-2.1v5.8h1.1v-2.6c0.2,0,0.4,0.1,0.6,0.1
					c1.2,0,2.2-0.6,2.2-1.7C115.9,424.1,115.6,423.2,114.1,423.2"/>
			</g>
			<g id="path3095">
				<path inkscape:connector-curvature="0" class="st0" d="M125.4,428.1v-1.8h2v-0.8h-2V424h2.3v-0.8h-3.4v5.8h3.7v-0.8H125.4z"/>
			</g>
			<g id="path3099">
				<path inkscape:connector-curvature="0" class="st1" d="M12.2,438.3c0-14.2,36.2-24.9,80.9-24c21.1,0.4,40.3,3.4,54.7,7.8
					c2.6,0.8,1.9,1.1-1,0.4c-13-3.1-30.5-4.9-51.9-5.3c-46.4-0.9-78.7,11.7-78.7,24.9C16.1,445.8,12.2,443.2,12.2,438.3"/>
			</g>
			<g id="path3103">
				<path class="st2" d="M15.1,444.1c-1.3,0-3.2-2.3-3.2-5.8c0-2.7,1.3-5.4,3.8-7.8c5.2-5.1,15.2-9.3,29-12.3
					c14-3,30.7-4.4,48.3-4.1c20.3,0.4,39.8,3.2,54.8,7.9c1.8,0.5,1.8,0.8,1.8,1c-0.1,0.2-0.1,0.5-2.9-0.2
					c-12.8-3.1-30.2-4.9-51.9-5.3c-17.3-0.3-33.7,1.2-47.3,4.5c-12.5,3-22.2,7.4-27.2,12.3c-2.6,2.6-4,5.2-4,7.9
					c0,0.6-0.1,1.1-0.3,1.4C15.8,443.9,15.5,444.1,15.1,444.1z M87.8,414.5c-15.6,0-30.3,1.4-42.9,4.1c-13.5,2.9-23.7,7.2-28.8,12.2
					c-2.4,2.4-3.7,4.9-3.7,7.5c0,3.3,1.7,5.3,2.7,5.3c0.2,0,0.4-0.1,0.5-0.3c0.2-0.3,0.2-0.7,0.2-1.2c0-2.8,1.4-5.6,4.1-8.2
					c5.1-5,14.9-9.4,27.4-12.5c13.6-3.3,30-4.8,47.4-4.5c21.7,0.4,39.2,2.2,52,5.3c0.6,0.2,1.1,0.3,1.5,0.3
					c-0.2-0.1-0.4-0.1-0.6-0.2c-14.9-4.6-34.3-7.4-54.6-7.8C91.3,414.5,89.6,414.5,87.8,414.5z"/>
			</g>
			<g id="path3107">
				<path inkscape:connector-curvature="0" class="st1" d="M174.7,442.1c0,14.1-36.2,24.9-80.9,24c-21.1-0.4-40.3-3.4-54.7-7.8
					c-2.6-0.8-1.9-1.1,1-0.4c13,3.1,30.5,4.9,51.9,5.3c46.4,0.9,78.7-11.7,78.7-24.9C170.8,434.6,174.7,437.2,174.7,442.1"/>
			</g>
			<g id="path3111">
				<path class="st2" d="M99.1,466.4c-1.7,0-3.5,0-5.2-0.1c-20.3-0.4-39.8-3.2-54.8-7.9c-1.8-0.5-1.8-0.8-1.8-1
					c0.1-0.2,0.1-0.5,2.9,0.2c12.8,3.1,30.2,4.9,51.9,5.3c17.3,0.3,33.7-1.2,47.3-4.5c12.5-3,22.2-7.4,27.2-12.3
					c2.6-2.6,4-5.2,4-7.9c0-0.6,0.1-1.1,0.3-1.4c0.2-0.3,0.5-0.5,0.9-0.5c1.3,0,3.2,2.3,3.2,5.8c0,2.7-1.3,5.4-3.8,7.8
					c-5.2,5.1-15.2,9.3-29,12.3C129.5,465,114.7,466.4,99.1,466.4z M38.6,457.8c0.2,0.1,0.4,0.1,0.6,0.2c14.9,4.6,34.3,7.4,54.6,7.8
					c17.5,0.4,34.2-1.1,48.2-4.1c13.5-2.9,23.7-7.2,28.8-12.2c2.4-2.4,3.7-4.9,3.7-7.5c0-3.3-1.7-5.3-2.7-5.3
					c-0.2,0-0.4,0.1-0.5,0.3c-0.2,0.3-0.2,0.7-0.2,1.2c0,2.8-1.4,5.6-4.1,8.2c-5.1,5-14.9,9.4-27.4,12.4c-13.6,3.3-30,4.8-47.4,4.5
					c-21.7-0.4-39.2-2.2-52-5.3C39.5,458,39,457.9,38.6,457.8z"/>
			</g>
			<g id="path3115">
				<path inkscape:connector-curvature="0" class="st0" d="M137.1,435c0-1.1,1.1-1.9,2.5-1.9s2.5,0.9,2.5,1.9c0,1.1-1.1,1.9-2.5,1.9
					C138.2,436.9,137.1,436.1,137.1,435"/>
			</g>
			<g id="path3119">
				<path inkscape:connector-curvature="0" class="st0" d="M28.6,434.3h-4.5v14.7l10.5,0c1.9,0,3.4-1,3.9-2.1l-9.9,0V434.3
					L28.6,434.3z"/>
			</g>
			<g id="path3123">
				<path inkscape:connector-curvature="0" class="st0" d="M98.6,434.3h-17v2h6v12.7h4.5v-12.7l2.7,0
					C96.7,436.3,98.2,435.1,98.6,434.3"/>
			</g>
			<g id="path3127">
				<path inkscape:connector-curvature="0" class="st0" d="M124.9,434.3h-4.5v14.7l10.5,0c1.9,0,3.4-1,3.9-2.1l-9.9,0V434.3
					L124.9,434.3z"/>
			</g>
			<g id="path3131">
				<path inkscape:connector-curvature="0" class="st0" d="M46.3,443.8l3.2-4.8l3.3,4.8H46.3L46.3,443.8z M49.4,434.3l-10.4,14.7
					l1.3,0c2.2,0,3.3-1.1,3.7-1.7l1-1.5h9.1l1,1.5c0.9,1.4,2.7,1.8,3.7,1.8l2.2,0l-10.1-14.7H49.4L49.4,434.3z"/>
			</g>
			<g id="path3135">
				<path inkscape:connector-curvature="0" class="st0" d="M103.2,443.8l3.2-4.8l3.3,4.8H103.2z M106.3,434.3l-10.4,14.7l1.3,0
					c2.2,0,3.3-1.1,3.7-1.7l1-1.5h9.1l1,1.5c0.9,1.4,2.7,1.8,3.7,1.8l2.2,0l-10.1-14.7H106.3L106.3,434.3z"/>
			</g>
			<g id="path3139">
				<path inkscape:connector-curvature="0" class="st0" d="M73.2,435.6c3.9,0.1,5.6,1.5,6.3,2.1l1-0.8c-2.2-2.4-6.1-3.1-8.2-3.1
					c-8.2-0.2-11.5,4.3-11.6,7.6c-0.1,4.9,4.4,7.8,10.3,7.9c7.1,0.1,9.1-3.2,9.4-3.6c0,0-0.8-0.3-1.2-0.4c-0.6,0.6-2.5,2.3-6.3,2.2
					c-5.3-0.1-7.6-3.3-7.5-6.2C65.4,438.5,68.2,435.5,73.2,435.6"/>
			</g>
			<g id="path3143">
				<path inkscape:connector-curvature="0" class="st0" d="M150.8,437.9c0.1-1.6,2-2.4,5.2-2.3c2,0.1,3.8,0.6,5.1,1.7l0.9-0.9
					c-1.1-1.2-3.5-2.5-7-2.6c-4.5-0.2-8.6,1.4-8.6,4.5c0,5.9,11.6,2.9,11.6,6.8c0,1.7-2.4,2.5-5.2,2.5c-3.2-0.1-5.6-1.4-6-2.9
					c-0.3-0.1-1.2,0-1.4,0c0,1.9,2.1,4.4,7.9,4.7c6.9,0.3,9.2-2.6,9.2-4.5C162.6,438.6,150.7,441.4,150.8,437.9"/>
			</g>
			<g id="path3147">
				<path inkscape:connector-curvature="0" class="st0" d="M137.4,448.9h4.5l0-11.3l-4.5,0L137.4,448.9L137.4,448.9z"/>
			</g>
		</g>
	</g>
</g>
</svg>
