<?xml version="1.0" encoding="utf-8"?>
<!-- Generator: Adobe Illustrator 22.0.1, SVG Export Plug-In . SVG Version: 6.00 Build 0)  -->
<svg version="1.1" id="Layer_1" xmlns="http://www.w3.org/2000/svg" xmlns:xlink="http://www.w3.org/1999/xlink" x="0px" y="0px"
	 viewBox="0 0 162 54" style="enable-background:new 0 0 162 54;" xml:space="preserve">
<style type="text/css">
	.st0{fill:url(#SVGID_1_);}
	.st1{fill:#1B1C20;}
	.st2{fill:url(#SVGID_2_);}
	.st3{fill:url(#SVGID_3_);}
</style>
<radialGradient id="SVGID_1_" cx="2.7232" cy="49.4384" r="47.0545" gradientTransform="matrix(1 0 0 -1 0 58)" gradientUnits="userSpaceOnUse">
	<stop  offset="0" style="stop-color:#00AB4E"/>
	<stop  offset="0.319" style="stop-color:#00A24B"/>
	<stop  offset="0.8376" style="stop-color:#008A40"/>
	<stop  offset="1" style="stop-color:#00813D"/>
</radialGradient>
<path class="st0" d="M46.4,6c-2.8-2.9-6-3.8-8.8-3.8c-3.6,0-7.8,1.7-10.2,5C24.4,3.7,19.9,1,15,1C9.4,1,4.8,3.2,2.4,8.2
	c-2.2,4.7-2,10.8,1.2,17.4c1.2,2.3,11.2-3.1,22.3-6.2c0.3-0.1,0.5-0.1,0.8-0.2c3-0.8,6.1-1.4,9.1-1.6c7.4-0.8,14.5-0.3,13.7,3.1
	C50.8,15.3,50.2,10,46.4,6z"/>
<g>
	<path class="st1" d="M75.2,32c0,0.9-2.7,2.1-3.3,2.1c-1,0-1.8-1.5-2.1-2.3c-0.3-0.6-0.5-1.2-0.8-1.7c-1.4,0.8-2.8,1.7-4.2,2.7
		c-0.6,0.4-1.1,0.8-1.6,1.2c-0.2,0.1-0.5,0.2-0.7,0.2c-0.7,0-1.3-0.6-1.3-1.3c0-0.9,0.9-1.4,1.5-1.7l0.2-0.1
		c-1.2-0.4-0.9-1.6-0.7-2.3c0.6-1.6,2.5-7,4-10.4c0.3-0.7,0.7-0.6,0.7-0.7c0-0.2,0.1-0.4,0.3-0.5c0.3-0.1,0.8-0.1,1-0.1
		c1.1,0,1.7,0.5,1.9,1.5c0.7,3.5,1.4,7.4,3,10.7c0.2,0.4,1.1,1.8,1.4,1.9C74.9,31.2,75.2,31.5,75.2,32z M68.5,28.4
		c-0.5-1.4-0.9-2.9-1.2-4.3c0-0.1-0.3-1.5-0.4-1.5c-0.2,0.6-1.4,3.9-1.7,5.6c-0.1,0.3-0.4,1.9,0.3,1.6
		C66.5,29.3,67.5,28.8,68.5,28.4z"/>
	<path class="st1" d="M85.9,30.5c0,0.3-0.1,0.5-0.3,0.7c-1.4,1.1-5,3-6.8,3c-1.4,0-2.8-1.1-2.8-2.6c0-0.7,0.7-0.7,0.7-1.2
		c0-0.1,0-0.1,0-0.2c-0.5-2.9-0.7-5.7-0.7-8.6c0-0.7-0.1-2.1,0.2-2.7c0.2-0.2,0.3-0.4,0.5-0.5c0.1,0,0.2-0.1,0.2-0.2
		c0.1-0.8,1-1,1.7-1c0.9,0,2.4,0.2,2.3,1.3c-0.1,3.6-0.9,7.2-0.9,10.8c0,0.4,0,0.9,0,1.4c0,0.4,0.1,0.6,0.5,0.6c0.9,0,2.9-1,3.9-1.4
		c0.4-0.2,0.7-0.3,0.9-0.3C85.7,29.7,85.9,30.2,85.9,30.5z"/>
	<path class="st1" d="M99.4,29.4c0,2.5-3.2,4.6-5.3,4.6c-0.9,0-2.1-0.3-2.1-1.4c0-0.5,0-0.8,0.6-0.9c3.2-0.8,3.3-4.3,0.1-5.3
		c-0.5-0.2-1.1-0.5-1.1-1.2c0-0.4,0.2-0.7,0.7-0.9c1.1-0.3,1.8-1.8,1.8-3c0-1-0.4-2-1.3-2c-1.2,0-1.3,2.4-1.3,3.2
		c-0.2,2.1-0.3,4.2-0.3,6.4c0,1.3,0.2,2.6,0.2,3.8c0.1,1.2-0.6,1.3-1.4,1.3c-1.4,0-2.8-1-2.8-2.5c0-0.8,0.7-0.7,0.7-1.2
		c0-0.1,0-0.4,0-0.4c-0.5-2.9-0.7-5.7-0.7-8.6c0-0.2,0-0.8,0-1.4c0.1-0.7,0.3-1.4,0.7-1.4c0.2,0,0.2,0,0.2-0.2c0.2-1.2,2.2-1,3-1
		c2.3,0,7.2,1.1,7.2,4.2c0,1.8-1.6,3-3.1,3.5c-0.2,0.1-0.5,0.1-0.1,0.1C97.5,25.4,99.4,27.1,99.4,29.4z"/>
	<path class="st1" d="M114.4,32c0,0.9-2.7,2.1-3.3,2.1c-1,0-1.8-1.5-2.1-2.3c-0.3-0.6-0.5-1.2-0.8-1.7c-1.4,0.8-2.8,1.7-4.2,2.7
		c-0.6,0.4-1.1,0.8-1.6,1.2c-0.2,0.1-0.5,0.2-0.7,0.2c-0.7,0-1.3-0.6-1.3-1.3c0-0.9,0.9-1.4,1.5-1.7l0.2-0.1
		c-1.2-0.4-0.9-1.6-0.6-2.3c0.6-1.6,2.5-7,4-10.4c0.3-0.7,0.7-0.6,0.7-0.7c0-0.2,0.1-0.4,0.3-0.5c0.2-0.1,0.8-0.1,1-0.1
		c1.1,0,1.7,0.5,1.9,1.5c0.7,3.5,1.4,7.4,3.1,10.7c0.2,0.4,1.1,1.8,1.3,1.9C114.1,31.2,114.4,31.5,114.4,32z M107.6,28.4
		c-0.5-1.4-0.9-2.9-1.2-4.3c0-0.1-0.3-1.5-0.4-1.5c-0.2,0.6-1.3,3.9-1.7,5.6c-0.1,0.3-0.4,1.9,0.3,1.6
		C105.7,29.3,106.6,28.8,107.6,28.4z"/>
	<path class="st1" d="M125.1,30.5c0,0.3-0.1,0.5-0.3,0.7c-1.3,1.1-5,3-6.8,3c-1.4,0-2.8-1.1-2.8-2.6c0-0.7,0.7-0.7,0.7-1.2
		c0-0.1,0-0.1,0-0.2c-0.5-2.9-0.7-5.7-0.7-8.6c0-0.7-0.1-2.1,0.2-2.7c0.1-0.2,0.3-0.4,0.5-0.5c0.1,0,0.2-0.1,0.2-0.2
		c0.1-0.8,1-1,1.7-1c0.9,0,2.4,0.2,2.3,1.3c-0.1,3.6-0.9,7.2-0.9,10.8c0,0.4,0,0.9,0,1.4c0,0.4,0.1,0.6,0.5,0.6c0.9,0,2.9-1,3.9-1.4
		c0.4-0.2,0.7-0.3,0.9-0.3C124.9,29.7,125.1,30.2,125.1,30.5z"/>
	<path class="st1" d="M139.2,32c0,0.9-2.7,2.1-3.3,2.1c-1,0-1.8-1.5-2.1-2.3c-0.3-0.6-0.5-1.2-0.8-1.7c-1.4,0.8-2.8,1.7-4.2,2.7
		c-0.6,0.4-1.2,0.8-1.6,1.2c-0.2,0.1-0.5,0.2-0.7,0.2c-0.7,0-1.3-0.6-1.3-1.3c0-0.9,0.9-1.4,1.5-1.7l0.2-0.1
		c-1.2-0.4-0.9-1.6-0.7-2.3c0.6-1.6,2.5-7,4.1-10.4c0.3-0.7,0.7-0.6,0.7-0.7c0-0.2,0.1-0.4,0.3-0.5c0.2-0.1,0.8-0.1,1-0.1
		c1.1,0,1.7,0.5,1.9,1.5c0.7,3.5,1.4,7.4,3.1,10.7c0.2,0.4,1,1.8,1.3,1.9C139.1,31.2,139.2,31.5,139.2,32z M132.5,28.4
		c-0.5-1.4-0.9-2.9-1.2-4.3c0-0.1-0.3-1.5-0.4-1.5c-0.2,0.6-1.3,3.9-1.7,5.6c-0.1,0.3-0.4,1.9,0.3,1.6
		C130.6,29.3,131.5,28.8,132.5,28.4z"/>
	<path class="st1" d="M149.4,32c0,0.5-0.3,0.9-0.6,1.1c-1.2,0.8-2.4,1-3.8,1c-4.4,0-5.4-3.2-5.4-7.5c0-2.6,0.4-9.4,4.9-9.4
		c0.5,0,1.4,0,1.6,0.6c0.1,0.3,0.3,0.2,0.4,0.2c0.2,0,0.1-0.5,0.6-0.5c1.1,0,1.2,1.9,1.2,2.6c0,1.2,0,2.2-0.1,3.4
		c0,0.5-0.2,0.9-0.8,0.9c-0.5,0-0.6-0.4-0.7-0.7c-0.2-0.9,0.2-2.7-1.1-2.7c-1.9,0-1.9,4.6-1.9,6c0,1.7,0.2,5.2,2.6,5.2
		c1,0,1.4-0.2,2-0.7c0.2-0.1,0.3-0.2,0.4-0.2C149.2,31.3,149.4,31.7,149.4,32z"/>
	<path class="st1" d="M161,19c0,0.5-0.5,0.7-0.8,0.7c-0.6,0.1-1.3,0.1-1.8,0.3c-0.4,0.1-0.8,0.4-0.9,1.2c-0.5,3.2-0.8,6.5-0.6,9.7
		c0,0.7,0.2,1.2,0.2,1.7c0.1,1.2-0.6,1.4-1.4,1.4c-1.4,0-2.8-0.9-2.8-2.5c0-0.5,0.2-0.7,0.6-0.9c0.1-0.1,0.2-0.1,0.2-0.3
		c0-0.1,0-0.2,0-0.2c-0.3-1.7-0.5-3.2-0.6-4.9c-0.1-1.4-0.1-2.8-0.3-4.1c-0.1-0.7-0.7-0.7-1.3-0.7c-0.5,0-0.7,0.1-1.2,0.1
		c-0.9,0-1.1-0.6-1.1-1.4c0-0.8,0.4-1.3,1.3-1.3c0.8,0,1.1,0.1,2,0.1c0.3,0,0.5-0.1,0.7-0.3c0.4-0.5,1.6-0.5,2.1-0.5
		c0.6,0,1.4,0.1,1.9,0.4c0.3,0.2,0.4,0.5,0.9,0.6c0.5,0.1,0.9,0.1,1.3,0.1C160,18.2,161,18.3,161,19z"/>
</g>
<radialGradient id="SVGID_2_" cx="2.7384" cy="48.6125" r="46.482" gradientTransform="matrix(1 0 0 -1 0 58)" gradientUnits="userSpaceOnUse">
	<stop  offset="0.3315" style="stop-color:#0083CA"/>
	<stop  offset="0.5505" style="stop-color:#007AC3"/>
	<stop  offset="0.9066" style="stop-color:#0062B0"/>
	<stop  offset="1" style="stop-color:#005BAA"/>
</radialGradient>
<path class="st2" d="M28.4,26.2c-10.7,3.1-20.4,7.3-22.7,3c1.5,2.4,3.4,4.8,5.7,7.1c-2.9,5.2-5.9,12.2,5.3,3.7
	c0.1,0.1,0.3,0.1,0.4,0.2c0.6,8,3.4,23,8.7,2.4c0.6,0,1.3,0.1,1.8,0.1c3.1,4.6,7.3,6.3,5.6-1.5c0.6-0.3,1.3-0.7,1.8-1.1
	c7.6,7,15.4,9.6,6.4-5.5c2.4-2.7,4.5-5.8,6.1-9.1C48.6,23.9,41.2,22.6,28.4,26.2z"/>
<radialGradient id="SVGID_3_" cx="92.6195" cy="-540.4513" r="56.8103" gradientTransform="matrix(0.8282 0 0 -0.8282 -73.9909 -439.0688)" gradientUnits="userSpaceOnUse">
	<stop  offset="0.5" style="stop-color:#FFFFFF"/>
	<stop  offset="1" style="stop-color:#B1B2B5"/>
</radialGradient>
<path class="st3" d="M28.4,26.2c12.8-3.7,20.3-2.3,19.2-0.7c0.8-1.6,1.4-3,1.8-4.9c1.3-5.2-16.2-3.7-24.9-0.9
	C14.1,23,5,28.4,3.6,25.5c0.6,1.4,1.3,2.5,2,3.8C7.9,33.6,17.6,29.3,28.4,26.2z"/>
</svg>
